<?xml version="1.0" encoding="UTF-8" standalone="no"?>
<!DOCTYPE svg PUBLIC "-//W3C//DTD SVG 1.1//EN"
 "http://www.w3.org/Graphics/SVG/1.1/DTD/svg11.dtd">
<!-- Generated by graphviz version 2.40.1 (20161225.0304)
 -->
<!-- Title: dependencies Pages: 1 -->
<svg width="1329pt" height="290pt"
 viewBox="0.00 0.00 1329.00 290.00" xmlns="http://www.w3.org/2000/svg" xmlns:xlink="http://www.w3.org/1999/xlink">
<g id="graph0" class="graph" transform="scale(1 1) rotate(0) translate(4 286)">
<title>dependencies</title>
<polygon fill="#ffffff" stroke="transparent" points="-4,4 -4,-286 1325,-286 1325,4 -4,4"/>
<text text-anchor="start" x="639.5091" y="-42.4" font-family="sans-serif" font-weight="bold" font-size="14.00" fill="#000000">Legend</text>
<polygon fill="#ffffb3" stroke="transparent" points="426.5,-10 426.5,-30 446.5,-30 446.5,-10 426.5,-10"/>
<text text-anchor="start" x="450.129" y="-15.4" font-family="sans-serif" font-size="14.00" fill="#000000"> &#160;Declarations</text>
<polygon fill="#8dd3c7" stroke="transparent" points="539.5,-10 539.5,-30 559.5,-30 559.5,-10 539.5,-10"/>
<text text-anchor="start" x="563.2251" y="-15.4" font-family="sans-serif" font-size="14.00" fill="#000000"> &#160;Module</text>
<polygon fill="#80b1d3" stroke="transparent" points="625.5,-10 625.5,-30 645.5,-30 645.5,-10 625.5,-10"/>
<text text-anchor="start" x="649.2812" y="-15.4" font-family="sans-serif" font-size="14.00" fill="#000000"> &#160;Bootstrap</text>
<polygon fill="#fdb462" stroke="transparent" points="722.5,-10 722.5,-30 742.5,-30 742.5,-10 722.5,-10"/>
<text text-anchor="start" x="746.1732" y="-15.4" font-family="sans-serif" font-size="14.00" fill="#000000"> &#160;Providers</text>
<polygon fill="#fb8072" stroke="transparent" points="818.5,-10 818.5,-30 838.5,-30 838.5,-10 818.5,-10"/>
<text text-anchor="start" x="842.2258" y="-15.4" font-family="sans-serif" font-size="14.00" fill="#000000"> &#160;Exports</text>
<g id="clust1" class="cluster">
<title>cluster_AppModule</title>
<polygon fill="none" stroke="#000000" stroke-dasharray="1,5" points="8,-70 8,-274 415,-274 415,-70 8,-70"/>
</g>
<g id="clust2" class="cluster">
<title>cluster_AppModule_declarations</title>
<polygon fill="none" stroke="#000000" points="16,-78 16,-130 138,-130 138,-78 16,-78"/>
</g>
<g id="clust4" class="cluster">
<title>cluster_AppModule_imports</title>
<polygon fill="none" stroke="#000000" points="146,-78 146,-130 407,-130 407,-78 146,-78"/>
</g>
<g id="clust6" class="cluster">
<title>cluster_AppModule_bootstrap</title>
<polygon fill="none" stroke="#000000" points="156,-214 156,-266 280,-266 280,-214 156,-214"/>
</g>
<g id="clust14" class="cluster">
<title>cluster_HomePageModule</title>
<polygon fill="none" stroke="#000000" stroke-dasharray="1,5" points="903,-70 903,-198 1039,-198 1039,-70 903,-70"/>
</g>
<g id="clust15" class="cluster">
<title>cluster_HomePageModule_declarations</title>
<polygon fill="none" stroke="#000000" points="924,-78 924,-130 1018,-130 1018,-78 924,-78"/>
</g>
<g id="clust21" class="cluster">
<title>cluster_ListPageModule</title>
<polygon fill="none" stroke="#000000" stroke-dasharray="1,5" points="1047,-70 1047,-198 1171,-198 1171,-70 1047,-70"/>
</g>
<g id="clust22" class="cluster">
<title>cluster_ListPageModule_declarations</title>
<polygon fill="none" stroke="#000000" points="1069,-78 1069,-130 1149,-130 1149,-78 1069,-78"/>
</g>
<g id="clust28" class="cluster">
<title>cluster_LoginPageModule</title>
<polygon fill="none" stroke="#000000" stroke-dasharray="1,5" points="759,-70 759,-198 895,-198 895,-70 759,-70"/>
</g>
<g id="clust29" class="cluster">
<title>cluster_LoginPageModule_declarations</title>
<polygon fill="none" stroke="#000000" points="781,-78 781,-130 873,-130 873,-78 781,-78"/>
</g>
<g id="clust35" class="cluster">
<title>cluster_RolesPageModule</title>
<polygon fill="none" stroke="#000000" stroke-dasharray="1,5" points="1179,-70 1179,-198 1313,-198 1313,-70 1179,-70"/>
</g>
<g id="clust36" class="cluster">
<title>cluster_RolesPageModule_declarations</title>
<polygon fill="none" stroke="#000000" points="1200,-78 1200,-130 1292,-130 1292,-78 1200,-78"/>
</g>
<g id="clust42" class="cluster">
<title>cluster_SharedModule</title>
<polygon fill="none" stroke="#000000" stroke-dasharray="1,5" points="423,-138 423,-206 751,-206 751,-138 423,-138"/>
</g>
<g id="clust43" class="cluster">
<title>cluster_SharedModule_declarations</title>
<polygon fill="none" stroke="#000000" points="593,-146 593,-198 743,-198 743,-146 593,-146"/>
</g>
<g id="clust46" class="cluster">
<title>cluster_SharedModule_exports</title>
<polygon fill="none" stroke="#000000" points="431,-146 431,-198 585,-198 585,-146 431,-146"/>
</g>
<!-- AppComponent -->
<g id="node1" class="node">
<title>AppComponent</title>
<polygon fill="#ffffb3" stroke="#000000" points="129.9399,-122 24.0601,-122 24.0601,-86 129.9399,-86 129.9399,-122"/>
<text text-anchor="middle" x="77" y="-99.8" font-family="Times,serif" font-size="14.00" fill="#000000">AppComponent</text>
</g>
<!-- AppModule -->
<g id="node2" class="node">
<title>AppModule</title>
<polygon fill="#8dd3c7" stroke="#000000" points="259.6571,-190 256.6571,-194 235.6571,-194 232.6571,-190 176.3429,-190 176.3429,-154 259.6571,-154 259.6571,-190"/>
<text text-anchor="middle" x="218" y="-167.8" font-family="Times,serif" font-size="14.00" fill="#000000">AppModule</text>
</g>
<!-- AppComponent&#45;&gt;AppModule -->
<g id="edge1" class="edge">
<title>AppComponent&#45;&gt;AppModule</title>
<path fill="none" stroke="#000000" d="M77,-122.2228C77,-142.3652 77,-172 77,-172 77,-172 166.0771,-172 166.0771,-172"/>
<polygon fill="#000000" stroke="#000000" points="166.0771,-175.5001 176.0771,-172 166.0771,-168.5001 166.0771,-175.5001"/>
</g>
<!-- AppComponent  -->
<g id="node5" class="node">
<title>AppComponent </title>
<polygon fill="#80b1d3" stroke="#000000" points="272.439,-258 163.561,-258 163.561,-222 272.439,-222 272.439,-258"/>
<text text-anchor="middle" x="218" y="-235.8" font-family="Times,serif" font-size="14.00" fill="#000000">AppComponent </text>
</g>
<!-- AppModule&#45;&gt;AppComponent  -->
<g id="edge4" class="edge">
<title>AppModule&#45;&gt;AppComponent </title>
<path fill="none" stroke="#000000" stroke-dasharray="1,5" d="M218,-190.2228C218,-190.2228 218,-211.7269 218,-211.7269"/>
<polygon fill="#000000" stroke="#000000" points="214.5001,-211.7269 218,-221.7269 221.5001,-211.727 214.5001,-211.7269"/>
</g>
<!-- AppRoutingModule -->
<g id="node3" class="node">
<title>AppRoutingModule</title>
<polygon fill="#8dd3c7" stroke="#000000" points="282.2744,-122 279.2744,-126 258.2744,-126 255.2744,-122 153.7256,-122 153.7256,-86 282.2744,-86 282.2744,-122"/>
<text text-anchor="middle" x="218" y="-99.8" font-family="Times,serif" font-size="14.00" fill="#000000">AppRoutingModule</text>
</g>
<!-- AppRoutingModule&#45;&gt;AppModule -->
<g id="edge2" class="edge">
<title>AppRoutingModule&#45;&gt;AppModule</title>
<path fill="none" stroke="#000000" d="M218,-122.2228C218,-122.2228 218,-143.7269 218,-143.7269"/>
<polygon fill="#000000" stroke="#000000" points="214.5001,-143.7269 218,-153.7269 221.5001,-143.727 214.5001,-143.7269"/>
</g>
<!-- SharedModule -->
<g id="node4" class="node">
<title>SharedModule</title>
<polygon fill="#8dd3c7" stroke="#000000" points="399.4231,-122 396.4231,-126 375.4231,-126 372.4231,-122 300.5769,-122 300.5769,-86 399.4231,-86 399.4231,-122"/>
<text text-anchor="middle" x="350" y="-99.8" font-family="Times,serif" font-size="14.00" fill="#000000">SharedModule</text>
</g>
<!-- SharedModule&#45;&gt;AppModule -->
<g id="edge3" class="edge">
<title>SharedModule&#45;&gt;AppModule</title>
<path fill="none" stroke="#000000" d="M333.5963,-122.2921C333.5963,-144.2057 333.5963,-178 333.5963,-178 333.5963,-178 269.7329,-178 269.7329,-178"/>
<polygon fill="#000000" stroke="#000000" points="269.733,-174.5001 259.7329,-178 269.7329,-181.5001 269.733,-174.5001"/>
</g>
<!-- LoginPageModule -->
<g id="node11" class="node">
<title>LoginPageModule</title>
<polygon fill="#8dd3c7" stroke="#000000" points="887.205,-190 884.205,-194 863.205,-194 860.205,-190 766.795,-190 766.795,-154 887.205,-154 887.205,-190"/>
<text text-anchor="middle" x="827" y="-167.8" font-family="Times,serif" font-size="14.00" fill="#000000">LoginPageModule</text>
</g>
<!-- SharedModule&#45;&gt;LoginPageModule -->
<g id="edge8" class="edge">
<title>SharedModule&#45;&gt;LoginPageModule</title>
<path fill="none" stroke="#000000" d="M399.4903,-98C512.0965,-98 777.7851,-98 777.7851,-98 777.7851,-98 777.7851,-143.7079 777.7851,-143.7079"/>
<polygon fill="#000000" stroke="#000000" points="774.2851,-143.7078 777.7851,-153.7079 781.2851,-143.7079 774.2851,-143.7078"/>
</g>
<!-- HeadingsComponent  -->
<g id="node15" class="node">
<title>HeadingsComponent </title>
<polygon fill="#fb8072" stroke="#000000" points="576.7037,-190 439.2963,-190 439.2963,-154 576.7037,-154 576.7037,-190"/>
<text text-anchor="middle" x="508" y="-167.8" font-family="Times,serif" font-size="14.00" fill="#000000">HeadingsComponent </text>
</g>
<!-- SharedModule&#45;&gt;HeadingsComponent  -->
<g id="edge11" class="edge">
<title>SharedModule&#45;&gt;HeadingsComponent </title>
<path fill="none" stroke="#000000" stroke-dasharray="5,2" d="M366.4037,-122.2667C366.4037,-140.5552 366.4037,-166 366.4037,-166 366.4037,-166 429.2758,-166 429.2758,-166"/>
<polygon fill="#000000" stroke="#000000" points="429.2758,-169.5001 439.2758,-166 429.2757,-162.5001 429.2758,-169.5001"/>
</g>
<!-- HomePage -->
<g id="node6" class="node">
<title>HomePage</title>
<polygon fill="#ffffb3" stroke="#000000" points="1009.9248,-122 932.0752,-122 932.0752,-86 1009.9248,-86 1009.9248,-122"/>
<text text-anchor="middle" x="971" y="-99.8" font-family="Times,serif" font-size="14.00" fill="#000000">HomePage</text>
</g>
<!-- HomePageModule -->
<g id="node7" class="node">
<title>HomePageModule</title>
<polygon fill="#8dd3c7" stroke="#000000" points="1031.4734,-190 1028.4734,-194 1007.4734,-194 1004.4734,-190 910.5266,-190 910.5266,-154 1031.4734,-154 1031.4734,-190"/>
<text text-anchor="middle" x="971" y="-167.8" font-family="Times,serif" font-size="14.00" fill="#000000">HomePageModule</text>
</g>
<!-- HomePage&#45;&gt;HomePageModule -->
<g id="edge5" class="edge">
<title>HomePage&#45;&gt;HomePageModule</title>
<path fill="none" stroke="#000000" d="M971,-122.2228C971,-122.2228 971,-143.7269 971,-143.7269"/>
<polygon fill="#000000" stroke="#000000" points="967.5001,-143.7269 971,-153.7269 974.5001,-143.727 967.5001,-143.7269"/>
</g>
<!-- ListPage -->
<g id="node8" class="node">
<title>ListPage</title>
<polygon fill="#ffffb3" stroke="#000000" points="1141.4902,-122 1076.5098,-122 1076.5098,-86 1141.4902,-86 1141.4902,-122"/>
<text text-anchor="middle" x="1109" y="-99.8" font-family="Times,serif" font-size="14.00" fill="#000000">ListPage</text>
</g>
<!-- ListPageModule -->
<g id="node9" class="node">
<title>ListPageModule</title>
<polygon fill="#8dd3c7" stroke="#000000" points="1163.041,-190 1160.041,-194 1139.041,-194 1136.041,-190 1054.959,-190 1054.959,-154 1163.041,-154 1163.041,-190"/>
<text text-anchor="middle" x="1109" y="-167.8" font-family="Times,serif" font-size="14.00" fill="#000000">ListPageModule</text>
</g>
<!-- ListPage&#45;&gt;ListPageModule -->
<g id="edge6" class="edge">
<title>ListPage&#45;&gt;ListPageModule</title>
<path fill="none" stroke="#000000" d="M1109,-122.2228C1109,-122.2228 1109,-143.7269 1109,-143.7269"/>
<polygon fill="#000000" stroke="#000000" points="1105.5001,-143.7269 1109,-153.7269 1112.5001,-143.727 1105.5001,-143.7269"/>
</g>
<!-- LoginPage -->
<g id="node10" class="node">
<title>LoginPage</title>
<polygon fill="#ffffb3" stroke="#000000" points="865.1558,-122 788.8442,-122 788.8442,-86 865.1558,-86 865.1558,-122"/>
<text text-anchor="middle" x="827" y="-99.8" font-family="Times,serif" font-size="14.00" fill="#000000">LoginPage</text>
</g>
<!-- LoginPage&#45;&gt;LoginPageModule -->
<g id="edge7" class="edge">
<title>LoginPage&#45;&gt;LoginPageModule</title>
<path fill="none" stroke="#000000" d="M827,-122.2228C827,-122.2228 827,-143.7269 827,-143.7269"/>
<polygon fill="#000000" stroke="#000000" points="823.5001,-143.7269 827,-153.7269 830.5001,-143.727 823.5001,-143.7269"/>
</g>
<!-- RolesPage -->
<g id="node12" class="node">
<title>RolesPage</title>
<polygon fill="#ffffb3" stroke="#000000" points="1283.5983,-122 1208.4017,-122 1208.4017,-86 1283.5983,-86 1283.5983,-122"/>
<text text-anchor="middle" x="1246" y="-99.8" font-family="Times,serif" font-size="14.00" fill="#000000">RolesPage</text>
</g>
<!-- RolesPageModule -->
<g id="node13" class="node">
<title>RolesPageModule</title>
<polygon fill="#8dd3c7" stroke="#000000" points="1305.1485,-190 1302.1485,-194 1281.1485,-194 1278.1485,-190 1186.8515,-190 1186.8515,-154 1305.1485,-154 1305.1485,-190"/>
<text text-anchor="middle" x="1246" y="-167.8" font-family="Times,serif" font-size="14.00" fill="#000000">RolesPageModule</text>
</g>
<!-- RolesPage&#45;&gt;RolesPageModule -->
<g id="edge9" class="edge">
<title>RolesPage&#45;&gt;RolesPageModule</title>
<path fill="none" stroke="#000000" d="M1246,-122.2228C1246,-122.2228 1246,-143.7269 1246,-143.7269"/>
<polygon fill="#000000" stroke="#000000" points="1242.5001,-143.7269 1246,-153.7269 1249.5001,-143.727 1242.5001,-143.7269"/>
</g>
<!-- HeadingsComponent -->
<g id="node14" class="node">
<title>HeadingsComponent</title>
<polygon fill="#ffffb3" stroke="#000000" points="735.2036,-190 600.7964,-190 600.7964,-154 735.2036,-154 735.2036,-190"/>
<text text-anchor="middle" x="668" y="-167.8" font-family="Times,serif" font-size="14.00" fill="#000000">HeadingsComponent</text>
</g>
<!-- HeadingsComponent&#45;&gt;SharedModule -->
<g id="edge10" class="edge">
<title>HeadingsComponent&#45;&gt;SharedModule</title>
<path fill="none" stroke="#000000" d="M668,-153.7333C668,-135.4448 668,-110 668,-110 668,-110 409.3386,-110 409.3386,-110"/>
<polygon fill="#000000" stroke="#000000" points="409.3386,-106.5001 399.3386,-110 409.3386,-113.5001 409.3386,-106.5001"/>
</g>
</g>
</svg>
